<?xml version="1.0" standalone="no"?>
<!DOCTYPE svg PUBLIC "-//W3C//DTD SVG 20010904//EN"
 "http://www.w3.org/TR/2001/REC-SVG-20010904/DTD/svg10.dtd">
<svg version="1.0" xmlns="http://www.w3.org/2000/svg"
 width="512.000000pt" height="512.000000pt" viewBox="0 0 512.000000 512.000000"
 preserveAspectRatio="xMidYMid meet">
<metadata>
Created by potrace 1.14, written by Peter Selinger 2001-2017
</metadata>
<g transform="translate(0.000000,512.000000) scale(0.100000,-0.100000)"
fill="#000000" stroke="none">
<path d="M2380 5109 c-93 -14 -107 -17 -170 -33 -490 -125 -887 -533 -999
-1027 -34 -150 -39 -229 -40 -658 -1 -222 -4 -408 -7 -412 -3 -5 -12 -9 -20
-9 -9 0 -48 -15 -89 -34 -141 -65 -263 -215 -297 -366 -9 -42 -12 -301 -12
-1085 0 -960 1 -1034 18 -1090 56 -189 201 -331 386 -380 47 -12 261 -15 1412
-15 l1357 0 78 25 c175 55 305 190 359 370 17 56 18 129 18 1100 l0 1040 -22
70 c-19 65 -74 160 -119 210 -80 88 -213 156 -338 171 -11 1 -484 3 -1050 3
l-1030 1 1 413 c1 284 5 430 14 471 57 272 239 478 499 566 85 28 129 34 246
33 350 -3 641 -247 715 -599 8 -37 13 -159 15 -329 1 -236 3 -273 18 -296 30
-45 52 -49 303 -49 264 0 284 4 310 66 24 58 17 536 -11 711 -23 148 -101 352
-183 483 -223 353 -564 578 -976 645 -84 14 -312 16 -386 4z"/>
</g>
</svg>
